<?xml version="1.0" standalone="no"?><!DOCTYPE svg PUBLIC "-//W3C//DTD SVG 1.1//EN" "http://www.w3.org/Graphics/SVG/1.1/DTD/svg11.dtd"><svg t="1628909230779" class="icon" viewBox="0 0 1024 1024" version="1.1" xmlns="http://www.w3.org/2000/svg" p-id="1212" xmlns:xlink="http://www.w3.org/1999/xlink" width="200" height="200"><defs><style type="text/css"></style></defs><path d="M857.760914 994.128457 66.56 994.128457c-23.844571 0-37.917257-19.397486-37.917257-43.271314L28.642743 159.656229c0-23.844571 14.043429-43.271314 37.917257-43.271314l254.654171 0 0 29.257143L66.56 145.642057c-7.723886 0-8.660114 6.290286-8.660114 14.014171L57.899886 950.857143c0 7.723886 0.936229 14.014171 8.660114 14.014171l791.200914 0c7.723886 0 19.338971-6.290286 19.338971-14.014171L877.099886 159.656229c0-7.723886-11.615086-14.014171-19.338971-14.014171l-214.718171 0 0-29.257143 214.718171 0c23.844571 0 48.596114 19.397486 48.596114 43.271314L906.357029 950.857143C906.357029 974.701714 881.605486 994.128457 857.760914 994.128457z" p-id="1213"></path><path d="M643.042743 877.099886 321.214171 877.099886 321.214171 701.557029 57.899886 701.557029 57.899886 672.299886 350.471314 672.299886 350.471314 847.842743 613.7856 847.842743 613.7856 672.299886 906.357029 672.299886 906.357029 701.557029 643.042743 701.557029Z" p-id="1214"></path><path d="M467.499886 116.414171l29.257143 0 0 497.371429-29.257143 0 0-497.371429Z" p-id="1215"></path><path d="M640.789943 281.6 476.715886 117.5552 311.5008 280.458971 290.962286 259.598629 476.862171 76.273371 661.474743 260.9152Z" p-id="1216"></path></svg>